<svg xmlns="http://www.w3.org/2000/svg" viewBox="0 0 418.45 640.09">
    <g>
        <g>
            <path d="M333.11,1.88C340.54-1.06,348.66.42,356.43.06c8.85.32,18.44-1.42,26.46,3.34C395.31,9.76,401,26.26,395,38.9Q330,165.71,264.83,292.44a27.47,27.47,0,0,0,0,27.07Q337.63,455.2,410.52,590.82c2.28,4.46,5,8.73,6.69,13.48,3.63,11.16-1,24.3-10.69,30.86a27.48,27.48,0,0,1-16.11,4.92q-23.55,0-47.09,0A27.57,27.57,0,0,1,322,629.56Q230.48,512.17,139.11,394.7c11.76-3.87,23.56-7.63,35.32-11.52,3.81-1.33,8.07-2,11.16-4.78a15.22,15.22,0,0,0,5.55-12.32q-.37-56-.89-112c-.09-3.59.41-7.35-1-10.74a15.18,15.18,0,0,0-9-9c-12.68-4.29-25.33-8.66-38-12.89Q231,117,319.67,12.38C323.1,7.76,327.61,3.8,333.11,1.88Z"/>
            <path d="M43,20.74C50.86,11,65.61,7.79,76.73,13.63c8.62,5.06,17.09,10.37,25.7,15.46A27.91,27.91,0,0,1,116,53q0,274.58,0,549.14a27.75,27.75,0,0,1-31.72,28.38c-6-.74-11.06-4.31-16.33-7-5.6-3.09-11.25-6.07-16.82-9.21a27.44,27.44,0,0,1-13.41-16.69c-1.08-3.75-1.1-7.69-1.1-11.55q0-98.7,0-197.39c-8.58-3.17-17.23-6.15-25.83-9.28A15.33,15.33,0,0,1,1,365q-.54-59-1-118a15.38,15.38,0,0,1,9.77-14.42c8.94-3,17.93-5.87,26.9-8.8q-.12-91.91,0-183.82C36.48,33.14,38.39,26,43,20.74Z"/>
        </g>
    </g>
</svg>