<svg xmlns="http://www.w3.org/2000/svg" viewBox="0 0 491.84 491.81">
    <g>
        <g>
            <path d="M282.32,0h9.32A204.14,204.14,0,0,1,396.89,32.07,206.78,206.78,0,0,1,459.15,94C487.37,137.23,498,191.4,488.4,242.12A204.48,204.48,0,0,1,157.6,363.27Q96.51,424.34,35.42,485.42A20.58,20.58,0,0,1,0,472.69v-3a21.6,21.6,0,0,1,6.46-13.28Q67.54,395.37,128.59,334.3A204.88,204.88,0,0,1,282.32,0Zm-4.19,41.19A163.56,163.56,0,0,0,133.45,147.43a165.62,165.62,0,0,0-5.07,98.63A163.67,163.67,0,0,0,258.61,366.2,163.76,163.76,0,0,0,449.44,183.05,163.56,163.56,0,0,0,278.13,41.19Z"/>
        </g>
    </g>
</svg>