<svg xmlns="http://www.w3.org/2000/svg" width="17" height="23" viewBox="0 0 17 23">
    <!--<defs>-->
    <!--<style>-->
    <!--.cls-1 {-->
    <!--fill: #333;-->
    <!--fill-rule: evenodd;-->
    <!--}-->
    <!--</style>-->
    <!--</defs>-->
    <path id="Shape_1_копия_79" data-name="Shape 1 копия 79" class="cls-1"
          d="M356.057,90a2.953,2.953,0,1,0,2.97,2.954A2.963,2.963,0,0,0,356.057,90Zm0,4.736a1.783,1.783,0,1,1,1.792-1.782A1.789,1.789,0,0,1,356.057,94.732ZM349.232,95.9a2.953,2.953,0,1,0-2.971-2.953A2.964,2.964,0,0,0,349.232,95.9Zm0-4.737a1.783,1.783,0,1,1-1.794,1.784A1.787,1.787,0,0,1,349.232,91.166Zm8.82,5.334h-2.529a0.588,0.588,0,1,0,0,1.175h2.529a1.765,1.765,0,0,1,1.768,1.758v3.743a1.766,1.766,0,0,1-1.163,1.649,0.588,0.588,0,0,0-.384.549v5.285a1.166,1.166,0,0,1-1.169,1.162h-2.672a0.588,0.588,0,1,0,0,1.175H357.1a2.342,2.342,0,0,0,2.346-2.331v-4.922A2.94,2.94,0,0,0,361,103.165V99.424A2.937,2.937,0,0,0,358.052,96.5ZM347.9,112.982h2.672a2.342,2.342,0,0,0,2.345-2.332v-4.907a2.94,2.94,0,0,0,1.548-2.578V99.424a2.942,2.942,0,0,0-2.947-2.929h-4.57A2.942,2.942,0,0,0,344,99.424v3.741a2.94,2.94,0,0,0,1.548,2.578v4.907A2.35,2.35,0,0,0,347.9,112.982Zm-2.716-9.817V99.424a1.765,1.765,0,0,1,1.769-1.759h4.571a1.765,1.765,0,0,1,1.768,1.759v3.741a1.766,1.766,0,0,1-1.158,1.649,0.591,0.591,0,0,0-.385.551v5.285a1.166,1.166,0,0,1-1.168,1.161h-2.672a1.166,1.166,0,0,1-1.168-1.161v-5.285a0.591,0.591,0,0,0-.384-0.551A1.758,1.758,0,0,1,345.18,103.165Z"
          transform="translate(-344 -90)"/>
</svg>
