<svg xmlns="http://www.w3.org/2000/svg" width="24" height="16.281" viewBox="0 0 24 16.281">
  <defs>
    <style>
      .cls-1 {
        fill: #3587e0;
        fill-rule: evenodd;
      }
    </style>
  </defs>
  <path id="ic_AirConditioning_копия_14" data-name="ic_AirConditioning копия 14" class="cls-1" d="M557,208H535a0.98,0.98,0,0,0-1,1v8a0.98,0.98,0,0,0,1,1h22a0.98,0.98,0,0,0,1-1v-8A0.979,0.979,0,0,0,557,208Zm0,9H535v-8h22v8Zm-2-4H537c-1,0-1,1,0,1h18C556,214,556,213,555,213Zm-8.769,7.67a0.861,0.861,0,0,1-.6-0.609,1.127,1.127,0,0,1,.56-0.648,0.355,0.355,0,0,0,.16-0.494,0.361,0.361,0,0,0-.52-0.153,1.58,1.58,0,0,0-1,1.295,1.68,1.68,0,0,0,1,1.334,0.862,0.862,0,0,1,.6.61,0.952,0.952,0,0,1-.6.609,0.329,0.329,0,0,0-.16.5,0.427,0.427,0,0,0,.36.19,0.386,0.386,0,0,0,.2-0.037,1.584,1.584,0,0,0,1-1.3A1.536,1.536,0,0,0,546.229,220.667ZM555,215H537c-1,0-1,1,0,1h18C556,216,556,215,555,215Zm-13-4h-5c-1,0-1,1,0,1h5C543,212,543,211,542,211Zm13,0h-1c-1,0-1,1,0,1h1C556,212,556,211,555,211Zm-4,0h-1c-1,0-1,1,0,1h1C552,212,552,211,551,211Zm-0.769,10.672a0.864,0.864,0,0,1-.6-0.608,1.121,1.121,0,0,1,.561-0.648,0.357,0.357,0,0,0,.16-0.5,0.363,0.363,0,0,0-.52-0.152,1.581,1.581,0,0,0-1,1.3,1.678,1.678,0,0,0,1,1.332,0.867,0.867,0,0,1,.6.61,0.955,0.955,0,0,1-.6.61,0.329,0.329,0,0,0-.16.5,0.423,0.423,0,0,0,.36.19,0.384,0.384,0,0,0,.2-0.037,1.583,1.583,0,0,0,1-1.3A1.536,1.536,0,0,0,550.229,221.667Zm-8,0a0.862,0.862,0,0,1-.6-0.608,1.114,1.114,0,0,1,.56-0.648,0.358,0.358,0,0,0,.161-0.5,0.364,0.364,0,0,0-.521-0.152,1.581,1.581,0,0,0-1,1.3,1.678,1.678,0,0,0,1,1.332,0.867,0.867,0,0,1,.6.61,0.955,0.955,0,0,1-.6.61,0.329,0.329,0,0,0-.16.5,0.422,0.422,0,0,0,.36.19,0.387,0.387,0,0,0,.2-0.037,1.583,1.583,0,0,0,1-1.3A1.536,1.536,0,0,0,542.229,221.667Z" transform="translate(-534 -208)"/>
</svg>
