<svg xmlns="http://www.w3.org/2000/svg" width="23.969" height="17.813" viewBox="0 0 23.969 17.813">
  <defs>
    <style>
      .cls-1 {
        fill: #3587e0;
        fill-rule: evenodd;
      }
    </style>
  </defs>
  <path id="ic_Wi-Fi_копия_18" data-name="ic_Wi-Fi копия 18" class="cls-1" d="M367.963,169.875a16.876,16.876,0,0,0-23.742,0,0.434,0.434,0,0,0,0,.616,0.44,0.44,0,0,0,.618,0,16,16,0,0,1,22.506,0,0.43,0.43,0,0,0,.309.128A0.435,0.435,0,0,0,367.963,169.875ZM346.79,172.8a0.433,0.433,0,0,0,0,.615,0.442,0.442,0,0,0,.618,0,12.342,12.342,0,0,1,17.367,0,0.442,0.442,0,0,0,.618,0,0.433,0.433,0,0,0,0-.615A13.224,13.224,0,0,0,346.79,172.8Zm9.3,0.162a9.484,9.484,0,0,0-6.732,2.767,0.433,0.433,0,0,0,0,.615,0.438,0.438,0,0,0,.618,0,8.7,8.7,0,0,1,12.23,0,0.436,0.436,0,0,0,.617-0.615A9.483,9.483,0,0,0,356.091,172.966Zm-0.124,4.15a2.847,2.847,0,1,0,2.863,2.848A2.858,2.858,0,0,0,355.967,177.116Zm0,4.824a1.978,1.978,0,1,1,1.989-1.976A1.985,1.985,0,0,1,355.967,181.94Z" transform="translate(-344.125 -165)"/>
</svg>
