<svg xmlns="http://www.w3.org/2000/svg" width="19" height="15" viewBox="0 0 19 15">
  <defs>
    <style>
      .cls-1 {
        fill: #fff;
        fill-rule: evenodd;
      }
    </style>
  </defs>
  <path id="Shape_1_копия_72" data-name="Shape 1 копия 72" class="cls-1" d="M288,249.585v8.155A2.288,2.288,0,0,0,290.317,260h14.362A2.289,2.289,0,0,0,307,257.74v-8.155a2.178,2.178,0,0,0-2.207-2.145h-3.086l-0.074-.313a2.8,2.8,0,0,0-2.76-2.131h-2.75a2.81,2.81,0,0,0-2.761,2.131l-0.073.313H290.2A2.179,2.179,0,0,0,288,249.585Zm5.669-1.221a0.469,0.469,0,0,0,.461-0.359l0.16-.67a1.862,1.862,0,0,1,1.833-1.414h2.75a1.865,1.865,0,0,1,1.834,1.414l0.158,0.67a0.476,0.476,0,0,0,.462.359h3.463a1.24,1.24,0,0,1,1.256,1.221v8.155a1.351,1.351,0,0,1-1.369,1.332H290.317a1.351,1.351,0,0,1-1.369-1.332v-8.155a1.24,1.24,0,0,1,1.256-1.221h3.463Zm-2.454,1.354a0.619,0.619,0,1,1-.637.619A0.628,0.628,0,0,1,291.213,249.718Zm6.284,7.905a3.882,3.882,0,1,0-3.99-3.88A3.942,3.942,0,0,0,297.5,257.623Zm0-6.838a2.958,2.958,0,1,1-3.039,2.958A3.006,3.006,0,0,1,297.5,250.785Z" transform="translate(-288 -245)"/>
</svg>
