<svg xmlns="http://www.w3.org/2000/svg" width="19.969" height="24.031" viewBox="0 0 19.969 24.031">
  <defs>
    <style>
      .cls-1 {
        fill: #3587e0;
        fill-rule: evenodd;
      }
    </style>
  </defs>
  <path id="ic_Shower_копия_14" data-name="ic_Shower копия 14" class="cls-1" d="M547.508,188.028a0.446,0.446,0,0,1-.5-0.328V175.963a0.553,0.553,0,0,1,1.01,0V187.7A0.446,0.446,0,0,1,547.508,188.028Zm-12,0C535,188,535,187,535,187l0-16.02s0-6.98,6-6.98,6.994,4.242,7,5a5.512,5.512,0,0,1,4.98,5.6,0.322,0.322,0,0,1-.316.327H542.287a0.321,0.321,0,0,1-.316-0.327A5.348,5.348,0,0,1,547,169c-0.162-1.02-1-4.03-6-4.03S536,171,536,171v16S536.016,188.059,535.506,188.028Zm7.515-14.039h9a4.639,4.639,0,0,0-4.547-4.1A4.548,4.548,0,0,0,543.021,173.989Zm11.528,13.8a0.445,0.445,0,0,1-.572-0.187l-3.037-11.5a0.554,0.554,0,0,1,.978-0.258l3.036,11.5A0.445,0.445,0,0,1,554.549,187.785Zm-3.226.134a0.448,0.448,0,0,1-.55-0.244l-1.84-11.752a0.555,0.555,0,0,1,1-.156l1.841,11.75A0.449,0.449,0,0,1,551.323,187.919Zm-10.908-.134a0.447,0.447,0,0,0,.573-0.187l3.036-11.5a0.554,0.554,0,0,0-.978-0.258l-3.036,11.5A0.445,0.445,0,0,0,540.415,187.785Zm3.225,0.134a0.448,0.448,0,0,0,.55-0.244l1.841-11.752a0.556,0.556,0,0,0-1-.156l-1.84,11.75A0.448,0.448,0,0,0,543.64,187.919Z" transform="translate(-535 -164)"/>
</svg>
