<svg xmlns="http://www.w3.org/2000/svg" width="26" height="17" viewBox="0 0 26 17">
  <defs>
    <style>
      .cls-1 {
        fill-rule: evenodd;
      }
    </style>
  </defs>
  <path id="Forma_1_копия_43" data-name="Forma 1 копия 43" class="cls-1" d="M556.62,73h-2.164a0.366,0.366,0,0,1-.378-0.353v-2.6H534.1v2.6a0.367,0.367,0,0,1-.379.353h-2.343A0.365,0.365,0,0,1,531,72.643V56.349A0.366,0.366,0,0,1,531.375,56h2.343a0.367,0.367,0,0,1,.379.353v4.842a1.817,1.817,0,0,1,.982-0.285h4.684a1.687,1.687,0,0,1,1.738,1.625V63a1.543,1.543,0,0,1-.3.919h12.882V60.7a0.366,0.366,0,0,1,.378-0.354h2.164A0.366,0.366,0,0,1,557,60.7V72.643A0.366,0.366,0,0,1,556.62,73Zm-1.787-.706h1.409V61.055h-1.409V72.29Zm-23.08,0h1.588V56.7h-1.588V72.29Zm2.344-2.958h19.981V68.085H534.1v1.247Zm0-1.953h19.981V64.626H534.1v2.753Zm0.982-3.459h4.684A0.952,0.952,0,0,0,540.745,63V62.532a0.953,0.953,0,0,0-.982-0.919h-4.684a0.953,0.953,0,0,0-.982.919V63A0.952,0.952,0,0,0,535.079,63.92Z" transform="translate(-531 -56)"/>
</svg>
