<svg xmlns="http://www.w3.org/2000/svg" viewBox="0 0 612.01 629">
    <path d="M187.22,0h4.51a105.15,105.15,0,0,1,66.55,25.75c23.39,20,37.46,50.47,37.25,81.28a31.76,31.76,0,0,1-9.13,22.41,30.68,30.68,0,0,1-32.12,7.49A31.62,31.62,0,0,1,234.8,116.3c-2-6.09-.79-12.66-2.46-18.82-3.27-14.9-15-27.45-29.47-32.08a40.65,40.65,0,0,0-25-.23,31.46,31.46,0,0,0-16.48,13.28c-5.35,8.48-7.31,18.69-7.3,28.61V160.4H344V118c.05-8.35-.34-16.75,1-25,3.41-24.42,16.18-47.12,34.41-63.57,19.74-18,46-29,72.8-29.41h3.55a103.08,103.08,0,0,1,39.82,8.73,107,107,0,0,1,63.35,101.33C557.85,126,543,139.59,527,138.67c-16.07-.21-29.94-14.73-30-30.69a44.51,44.51,0,0,0-16.63-35.4,41.92,41.92,0,0,0-35.48-8.21A33.44,33.44,0,0,0,425.14,78c-6.13,8.67-8.44,19.52-8.32,30,0,26.68.18,53.35.09,80,.23,5.33-.84,10.61-.63,15.94-.62,86.36-.21,172.72-.35,259.08.3,5.1-3.79,10.07-9,10.38-5.84.78-11.17-4.65-10.79-10.41q0-111.51-.1-223c-.11-3.33.36-6.63.53-9.95q.54-55.06.39-110.12c.1-8.65-.46-17.37,1.06-25.94,2.37-14.55,9.26-28.68,20.63-38.29A53.45,53.45,0,0,1,452,43.11a62.11,62.11,0,0,1,45.76,18.12,64.68,64.68,0,0,1,19,45.8A11.39,11.39,0,0,0,527,118.44c6,.72,11.87-4.41,12.14-10.44.81-31.18-16.82-61.94-44.12-77a84.07,84.07,0,0,0-55.22-9.58,93.9,93.9,0,0,0-62.1,40.35,82.4,82.4,0,0,0-14,46.21q0,177,0,354.08c.36,5.09-3.57,10.15-8.74,10.6-5.54.84-11-4-11-9.53-.1-24.32,0-48.65,0-73H154.12q0,54.94,0,109.9c.28,5.49-4.52,10.63-10.09,10.38a10,10,0,0,1-9.7-10.35q0-196.56,0-393.13c0-16.46,4.67-33.47,15.57-46.11a50.51,50.51,0,0,1,32.07-17.25,63,63,0,0,1,49.77,15.71A64,64,0,0,1,253.23,106a12,12,0,0,0,4.61,10.22,11.14,11.14,0,0,0,15.45-2.11c3.48-4.28,2.3-10.13,2-15.18-2.42-28.34-19.91-54.7-44.87-68.24a84.59,84.59,0,0,0-53.52-9.55,90.88,90.88,0,0,0-58.19,34.61,84.18,84.18,0,0,0-17.63,51.12V328.05c0,7.31.18,14.63-.39,21.93,0,10.66-.08,21.33,0,32,.54,6.66.34,13.35.37,20q0,29.5,0,59c0,2.75-.35,5.7-2.19,7.88a9.85,9.85,0,0,1-11.86,2.91,10.19,10.19,0,0,1-5.79-9.08c-.2-18.57.19-37.14-.23-55.7,0-20,.4-39.95.11-59.93-.38-16.35.17-32.71.08-49.07q0-91,0-182c0-8.06-.07-16.18,1.16-24.17,3.68-24.93,16.87-48.12,35.83-64.61A109.27,109.27,0,0,1,187.22,0Zm-33.1,180.6v83.33H344V180.6Zm0,103.53v85.8H344V284.13Z"/>
    <path d="M0,493.94c.33-6.11,7.09-10.74,12.9-8.62,4.94,1.47,7.35,6.81,7,11.66.5,15.86,14.1,30.06,30,30.86,15.27,1.4,30.1-9.87,33.57-24.67,1.55-4.73-.11-10.39,3.19-14.51,3.31-4.57,10.7-5.12,14.6-1,2.58,2.37,3.15,6,3.18,9.33a32.94,32.94,0,0,0,18.58,27.84,31.89,31.89,0,0,0,34.8-4.92c7.52-6.42,11.41-16.27,11.39-26.06.31-7.46,10.12-11.85,15.82-6.92,5.46,3.95,3.17,11.27,5.07,16.84,3.68,14.34,18,25.2,32.9,24.11,16.09-.54,30-14.81,30.57-30.81-.26-4.58,1.63-9.66,6.19-11.44,5.88-2.77,13.41,1.87,13.65,8.33s1.52,13,5.09,18.51c6.2,10.33,18.54,16.68,30.57,15.3,13.43-1.15,25.15-11.74,28.23-24.77,1.55-5.29-.34-12.1,4.66-15.92,5.39-4.86,15.11-1.2,15.94,6,.24,6.6,1.39,13.34,5,19,6.52,11.28,20.34,17.84,33.2,15.33,13-2.16,23.68-13.08,26.15-25.92,1-4.35-.24-9.51,3-13.1,3.65-4.74,11.58-4.7,15.17.07,3.11,3.47,2,8.4,2.87,12.59,2.44,14.21,15.12,26,29.62,26.79,15.13,1.33,29.82-9.67,33.46-24.29,1.8-5-.23-11.26,3.74-15.46,3.64-4.36,11-4.28,14.66.07,3.8,4.05,2,10,3.56,14.89,3.52,15.25,19.09,26.71,34.77,24.68,15.83-1.43,28.82-16,28.92-31.79-.47-5.64,4.11-11.27,9.94-11.11,5.58-.23,10.12,5,10,10.41v.36a54.24,54.24,0,0,1-16.43,37.93,51.57,51.57,0,0,1-41.66,14.22,52.17,52.17,0,0,1-36.47-21.66c-9.6,13.53-25.79,22.21-42.45,22-16.56.13-32.61-8.54-42.15-22-9.67,13.62-26,22.32-42.84,22-16.42,0-32.3-8.64-41.74-22-9.57,13.48-25.69,22.15-42.3,22-16.62.18-32.74-8.5-42.32-22-9.78,13.86-26.55,22.56-43.58,22-16.16-.25-31.68-8.83-41-22-9.51,13.41-25.51,22-42,22-16.7.26-33-8.42-42.57-22a52.29,52.29,0,0,1-35.32,21.51,51.45,51.45,0,0,1-39-10.78A53.25,53.25,0,0,1,0,493.94Z"/>
    <path d="M0,574.88a10,10,0,0,1,9.07-9.19,9.89,9.89,0,0,1,10.61,9.16c.16,6.9,1.81,13.9,5.84,19.6A32.18,32.18,0,0,0,55.11,608.6C68.9,607.53,81,596.51,83.75,583c1.29-5-.29-11.3,4.26-15,5.38-5.14,15.37-1.51,16.16,5.89.26,5.81,1,11.75,3.87,16.95,5.62,11.38,18.36,18.86,31.07,17.72,14.1-.81,26.52-12.08,29.28-25.83,1.17-4.63-.21-10.19,3.41-13.95a9.9,9.9,0,0,1,14.93.47c3.29,3.89,1.77,9.33,3.1,13.9,3,14.25,16.5,25.63,31.2,25.49,15,.46,29-11.15,31.95-25.76,1.2-4.34-.15-9.42,2.72-13.21a9.81,9.81,0,0,1,13.15-2.59c3.4,2,4.91,6,4.78,9.79a33.12,33.12,0,0,0,16.1,27.33,31.86,31.86,0,0,0,33.69-.77A33.38,33.38,0,0,0,338.35,576c-.26-5.66,4.91-10.92,10.64-10.28A10,10,0,0,1,358.16,576a33.35,33.35,0,0,0,16.42,28.45,31.86,31.86,0,0,0,34.84-1.88A33.43,33.43,0,0,0,422.94,576c-.41-6.52,6.52-12.11,12.78-9.93,4.65,1.32,7.41,6.19,7.1,10.88.18,16.17,13.91,30.9,30.16,31.71,15.22,1.34,30-9.82,33.5-24.55,1.7-4.92-.22-10.94,3.55-15.08,3.67-4.52,11.28-4.42,14.91.1,3.67,4.14,1.8,10.09,3.48,15,3.28,13.37,15.67,24,29.52,24.59,13.7,1,27.15-8,31.89-20.85,1.93-4.4,2.08-9.25,2.5-14a9.92,9.92,0,0,1,12.53-7.83c3.88,1.11,6.5,4.73,7.14,8.62v2a54.11,54.11,0,0,1-18.08,39.27,51.48,51.48,0,0,1-41.82,12.43A52.49,52.49,0,0,1,517.43,607a52.53,52.53,0,0,1-41.67,22h-1.38a52.63,52.63,0,0,1-41.53-22c-9.5,13.35-25.41,22-41.88,22-16.74.32-33.06-8.37-42.69-22a52.73,52.73,0,0,1-41.57,22H305.4a52.61,52.61,0,0,1-41.74-22c-9.63,13.57-25.91,22.26-42.62,22-16.51.08-32.45-8.6-42-22-9.55,13.41-25.57,22.09-42.12,22-16.66.23-32.88-8.44-42.46-22A52.47,52.47,0,0,1,61,628.17a51.39,51.39,0,0,1-39.61-9.47A53.33,53.33,0,0,1,0,574.88Z"/>
</svg>