<svg xmlns="http://www.w3.org/2000/svg" width="23.656" height="12.75" viewBox="0 0 23.656 12.75">
  <defs>
    <style>
      .cls-1 {
        fill: #42be56;
        fill-rule: evenodd;
      }
    </style>
  </defs>
  <path id="Forma_1_копия_66" data-name="Forma 1 копия 66" class="cls-1" d="M358.85,370.3a0.129,0.129,0,0,0,.021,0c2.923,0,5.126-1.952,5.126-4.745a0.4,0.4,0,0,0-.394-0.409h-3.567c0.012-.268.018-0.447,0.018-0.724a0.4,0.4,0,0,0-.395-0.408H343.282a0.4,0.4,0,0,0-.393.408c0,3.964.972,6.757,3.105,8.644h-5.265a0.4,0.4,0,0,0-.395.408c0,0.618,2.827,1.792,2.855,1.8a22.625,22.625,0,0,0,8.188,1.513c7.329,0,10.744-2.879,10.886-2.99a0.415,0.415,0,0,0,.137-0.455,0.393,0.393,0,0,0-.374-0.279H356.76A8.278,8.278,0,0,0,358.85,370.3Zm4.341-4.331a3.917,3.917,0,0,1-3.993,3.506,12.937,12.937,0,0,0,.787-3.506h3.206Zm-11.814,10.008a19.913,19.913,0,0,1-9.172-2.09h18.3A20.124,20.124,0,0,1,351.377,375.977Zm-4.054-2.906c-2.392-1.545-3.556-4.233-3.642-8.236h15.58c-0.086,4-1.437,6.691-3.83,8.236h-8.108Z" transform="translate(-340.344 -364.031)"/>
</svg>
