<svg xmlns="http://www.w3.org/2000/svg" viewBox="0 0 390 373.04">
    <path d="M315.33,2.33a7,7,0,0,1,9.89-.54,7.18,7.18,0,0,1,0,10.49Q283,55,240.67,97.7c-3.48,3.56-7.23,6.92-9.94,11.13A37.94,37.94,0,0,0,226,140c.77,2.73,2.14,5.25,2.75,8s-1.11,5.05-3,6.71q-28.47,25.51-56.93,51c-2.13,1.84-4.06,4-6.56,5.37a7,7,0,0,1-8.21-2c-8.77-9.89-17.43-19.87-26.2-29.77a70.06,70.06,0,0,1-64.7-.44c-13-6.72-22.68-18.11-31.79-29.28C14.61,128.4,1.46,103,0,75.58V68.81c.77-14.07,6.28-28.35,17.23-37.6C30.11,19.76,48.51,17,65.08,19.6c24.45,3.73,46.7,16.26,65.69,31.69,10.47,8.82,21.08,18.15,27.47,30.49a72.07,72.07,0,0,1,.81,66q13.3,12,26.63,23.91c9.23-8.29,18.48-16.54,27.7-24.84a52.79,52.79,0,0,1,4.48-44c2.87-4.94,6.8-9.14,10.86-13.12Q272,46.07,315.33,2.33ZM42,34.15C32.63,36.21,24.06,42,19.37,50.43c-6.13,10.75-6.3,23.8-4.05,35.68,5.17,25.83,20.19,48.62,38.05,67.53A58.17,58.17,0,0,0,81,170.93a55.87,55.87,0,0,0,43.84-6.06c2.88-2.14,7.27-2,9.64.81,8.58,9.63,17,19.36,25.56,29q7.56-6.75,15.12-13.54-14.3-12.83-28.62-25.64c-1.62-1.42-3.18-3.2-3.3-5.46-.42-2.75,1.42-5,2.59-7.34a57.48,57.48,0,0,0-1.08-56.36c-4.39-7.69-11-13.74-17.48-19.61C113,54.29,96.89,43.65,78.93,37.5,67.13,33.53,54.25,31.36,42,34.15Z"/>
    <path d="M338.33,21.38a7,7,0,0,1,9.39,2.91,7.27,7.27,0,0,1-1.63,8.77q-34.83,35.22-69.68,70.42c-2.05,2.06-4.22,4.68-7.42,4.56a7.08,7.08,0,0,1-7-8.11c.4-3,3-4.89,4.92-6.94q34.59-34.89,69.15-69.82A11.37,11.37,0,0,1,338.33,21.38Z"/>
    <path d="M359.37,40.48c4.22-1.38,8.92,2.17,8.93,6.57.26,3.59-2.78,6-5,8.25q-34.61,34.9-69.17,69.85a7.05,7.05,0,0,1-10,.78,7.21,7.21,0,0,1,0-10.72l71.64-72.37A8.7,8.7,0,0,1,359.37,40.48Z"/>
    <path d="M375,68.07c2.26-2.19,4.52-5.24,8-5.07,3.45-.09,6,2.76,7,5.84V71c-.85,3.4-3.69,5.61-6,8q-43.58,43.92-87.08,87.9c-13.48,13.33-34.6,17.78-52.41,11.4q-11.37,12.87-22.67,25.81,58.53,52.53,117.1,105c11.71,10.54,15.06,28.85,8.17,43A36.76,36.76,0,0,1,314.65,373h-.33a36.88,36.88,0,0,1-27.55-12.75q-50.58-57.5-101.09-115Q135,302.87,84.37,360.52A36.88,36.88,0,0,1,57.53,373h-1a36.81,36.81,0,0,1-31.72-19.72c-7.63-14.18-4.52-33.17,7.43-44q41.6-37.41,83.28-74.71c2.63-2.86,7.54-3.2,10.23-.24A7.22,7.22,0,0,1,125,245l-82.75,74.2A22.73,22.73,0,0,0,48.15,357,22.34,22.34,0,0,0,68,356c4.42-2.42,7.38-6.63,10.7-10.28q79-90,158.13-180a7.48,7.48,0,0,1,6.22-3c3,.59,5.63,2.09,8.53,2.9A37.15,37.15,0,0,0,288,156Q331.5,112,375,68.07ZM212.48,214.71q-8.62,10-17.41,19.79c33.92,38.91,68.15,77.55,102.16,116.38a22.3,22.3,0,0,0,37.09-4.58,22.83,22.83,0,0,0-.82-21.7c-2-3.55-5.24-6.11-8.22-8.79Q268.87,265.27,212.48,214.71Z"/>
</svg>