<svg xmlns="http://www.w3.org/2000/svg" width="24" height="23" viewBox="0 0 24 23">
    <defs>
        <style>
            .cls-1 {
            fill: #42be56;
            fill-rule: evenodd;
            }
        </style>
    </defs>
    <path id="Shape_1_копия_83" class="cls-1" d="M362.324,490.394a0.426,0.426,0,0,0-.609,0l-4.469,4.522a0.44,0.44,0,0,0,0,.618,0.431,0.431,0,0,0,.609,0l4.469-4.524A0.441,0.441,0,0,0,362.324,490.394Zm1.215,1.211a0.427,0.427,0,0,0-.61,0l-4.468,4.522a0.441,0.441,0,0,0,0,.617,0.431,0.431,0,0,0,.609,0l4.469-4.523A0.439,0.439,0,0,0,363.539,491.605Zm-4.216,7.636,5.547-5.614a0.439,0.439,0,0,0,0-.617,0.427,0.427,0,0,0-.61,0l-5.546,5.613a2.268,2.268,0,0,1-2.6.453,0.426,0.426,0,0,0-.508.1l-1.885,2.149,0,0a0,0,0,0,1,0,0l-8.145,9.289a0.018,0.018,0,0,1-.007.008,1.088,1.088,0,0,1-.077.085,1.367,1.367,0,0,1-1.95,0,1.406,1.406,0,0,1,0-1.973c0.025-.027.053-0.052,0.084-0.08l0.008,0,5.092-4.576a0.439,0.439,0,0,0,.036-0.615,0.425,0.425,0,0,0-.608-0.037L343.06,508c-0.048.042-.092,0.082-0.133,0.123a2.289,2.289,0,0,0,0,3.208,2.224,2.224,0,0,0,3.17,0,1.806,1.806,0,0,0,.122-0.134l6.207-7.078,6.207,7.079c0.041,0.048.082,0.093,0.123,0.133a2.223,2.223,0,0,0,3.169,0,2.29,2.29,0,0,0,0-3.207c-0.042-.042-0.085-0.082-0.133-0.124l-7.143-6.417,1.4-1.594A3.127,3.127,0,0,0,359.323,499.241Zm1.9,9.416,0.008,0c0.032,0.028.059,0.053,0.085,0.08a1.408,1.408,0,0,1,0,1.973,1.368,1.368,0,0,1-1.951,0,1.086,1.086,0,0,1-.078-0.084l0-.008L353,503.463l1.075-1.226Zm-0.193-19.533a0.426,0.426,0,0,0-.609,0l-5.547,5.614a3.217,3.217,0,0,0-.74,3.316l-1.708,1.533-1.64-1.475a4.426,4.426,0,0,0-.807-5.1,9.793,9.793,0,0,0-4.36-2.681,3.731,3.731,0,0,0-3.716.738,3.843,3.843,0,0,0-.729,3.762,9.957,9.957,0,0,0,2.649,4.412,4.293,4.293,0,0,0,5.041.816s1.6,1.829,1.625,1.854a0.43,0.43,0,0,0,.322.145,0.422,0.422,0,0,0,.286-0.109l3.837-3.447a0.439,0.439,0,0,0,.1-0.515,2.338,2.338,0,0,1,.447-2.632l5.546-5.613A0.439,0.439,0,0,0,361.03,489.124ZM350.847,501l-1.569-1.788a0.426,0.426,0,0,0-.548-0.081,3.443,3.443,0,0,1-4.3-.512,9.065,9.065,0,0,1-2.423-4.007,3.021,3.021,0,0,1,.5-2.933,2.925,2.925,0,0,1,2.9-.508,8.938,8.938,0,0,1,3.962,2.452,3.55,3.55,0,0,1,.5,4.35,0.44,0.44,0,0,0,.081.555l1.823,1.637Z" transform="translate(-341 -489)"/>
</svg>
