<svg xmlns="http://www.w3.org/2000/svg" viewBox="0 0 1232.12 975.23">
    <path class="cls-1"
          d="M10.83,18C20.9,6.05,36.84.54,52.09,0q562,0,1124.08,0c15.83-.33,32.62,4.63,43.67,16.44,8.7,9.15,12,22,12.28,34.34V923.53c-.23,12.18-3.18,25-11.55,34.24-10.2,11.66-26,16.62-41,17.46H53.59C40,974.7,25.93,970.9,15.5,961.81,4.63,952.65,0,938.09,0,924.22q0-436.48,0-873C0,39.43,3,27.13,10.83,18ZM51.35,51.3q0,436.17,0,872.33H1180.7q0-436.15,0-872.33Z"/>
    <path class="cls-1"
          d="M114,120.07c10.19-11.65,26-17,41.16-17.43q435,0,870.07,0c15.16.31,31,5.6,41.28,17.17,8.14,9.05,11.46,21.46,11.51,33.42q0,51.81,0,103.6h51.46q0,25.64,0,51.25c-17.16,0-34.32,0-51.47,0q0,179.63,0,359.26c17.15,0,34.31,0,51.47,0q0,25.62,0,51.25H1078q0,47.29,0,94.58c.27,11.07-.11,22.63-5.24,32.7-6,12.57-18.42,20.89-31.62,24.31-10.06,3-20.63,2.07-31,2.21h-850a66.49,66.49,0,0,1-25.63-3.81c-10.9-3.8-20.78-11.32-26.09-21.72-4-7.56-5.64-16.18-5.73-24.67q0-334,0-668C102.56,142.09,105.77,129.37,114,120.07Zm40.08,34V821.09H1028.3q0-51.21,0-102.44c-17.61,0-35.22,0-52.83,0q0-25.64,0-51.26h52.82q0-179.62,0-359.26H975.47q0-25.63,0-51.26,26.4,0,52.82,0,0-51.39,0-102.79Z"/>
    <path class="cls-1" d="M205.48,359.43q0-25.67,0-51.33h51.28q0,25.66,0,51.33Z"/>
    <path class="cls-1" d="M308.12,308.1q25.68,0,51.35,0v51.32H308.12Z"/>
    <path class="cls-1" d="M410.77,308.1q25.68,0,51.35,0v51.33H410.77Z"/>
    <path class="cls-1"
          d="M740,317A179.59,179.59,0,1,1,617.9,513.16q-39.43,0-78.87,0a25.63,25.63,0,1,1,.17-51.25H618A180,180,0,0,1,740,317Zm-11.51,61.56a128.54,128.54,0,0,0-58.39,83.37h53.14c8.4-23.81,29.13-42.78,53.68-48.79a76.9,76.9,0,1,1-53.82,100H670A128.39,128.39,0,0,0,918,527c11-34,7-72.59-11.13-103.43a128.32,128.32,0,0,0-178.42-45Zm61.08,84.32c-13.09,3-22.06,17.34-18.8,30.4,2.53,13,16.38,22.33,29.42,19.76,13.6-2,23.66-16.28,20.88-29.77C818.92,469,803.4,458.94,789.54,462.85Z"/>
    <path class="cls-1" d="M205.47,462.09q0-25.66,0-51.32h51.28q0,25.67,0,51.33Q231.12,462.11,205.47,462.09Z"/>
    <path class="cls-1" d="M308.12,410.76h51.35q0,25.65,0,51.31c-17.12,0-34.24,0-51.36,0Z"/>
    <path class="cls-1" d="M410.77,410.77h51.35V462.1c-17.12,0-34.24,0-51.36,0Q410.79,436.43,410.77,410.77Z"/>
    <path class="cls-1" d="M205.47,513.37h51.3q0,25.67,0,51.33H205.48Q205.47,539,205.47,513.37Z"/>
    <path class="cls-1" d="M308.12,513.36c17.12,0,34.24,0,51.36,0q0,25.65,0,51.31H308.12Z"/>
    <path class="cls-1" d="M410.76,513.38c17.12,0,34.24,0,51.36,0V564.7H410.77Q410.76,539,410.76,513.38Z"/>
    <path class="cls-1" d="M308.12,616h51.35v51.33H308.12Z"/>
</svg>