<svg xmlns="http://www.w3.org/2000/svg" viewBox="0 0 695 695">
    <path d="M338.35,0h12.34A347.27,347.27,0,0,1,688.28,281.49c4,20,5.44,40.44,6.72,60.79v11.33c-1.5,21.53-3.09,43.14-7.7,64.28A347.65,347.65,0,0,1,417.83,687.32c-20.82,4.55-42.11,6.09-63.32,7.68H341.42c-20.57-1.37-41.2-2.85-61.43-7A348,348,0,0,1,41.34,511.7C15.59,464.18,1.64,410.54,0,356.56v-19A393.4,393.4,0,0,1,4.73,289.8,347.66,347.66,0,0,1,217.08,25.24C255.54,9.55,296.87,1.3,338.35,0Zm0,36.56a310.52,310.52,0,0,0-298.65,265C29.41,370.91,43.26,443.66,79,504A311.85,311.85,0,0,0,232.33,635.72c75.19,30.11,162.22,29,236.62-3A310.47,310.47,0,0,0,562,571.08c50-47.68,83.27-112.48,92.56-180.94A310.53,310.53,0,0,0,338.4,36.56Z"/>
    <path d="M337.13,78.32a71.52,71.52,0,1,1-45.25,115.73,71.67,71.67,0,0,1-3.73-84.89A71.67,71.67,0,0,1,337.13,78.32Z"/>
    <path d="M252.18,287c.3-10.18,9.67-18.73,19.75-18.66,36-.06,72.08,0,108.11,0,4-.11,8.1.21,11.73,2A20.27,20.27,0,0,1,403.25,289c-.07,70.06.09,140.11-.08,210.17,7.18.34,14.38-.09,21.56.21,9.49.64,17.85,9,18.11,18.54.07,16.37,0,32.74,0,49.11a19.64,19.64,0,0,1-12.76,18.14c-3.52,1.51-7.41,1.34-11.15,1.31q-73.93,0-147.88,0c-10.08-.22-19-9.23-18.93-19.37q-.06-24,0-48a19.73,19.73,0,0,1,12.8-18.44c4.13-1.75,8.69-1.29,13.05-1.33,4.62-.06,9.24.13,13.86-.13q-.15-71.67,0-143.35c-7.27-.39-14.57.13-21.84-.27-9.7-.82-18-9.64-17.88-19.45C252.14,319.73,252.07,303.38,252.18,287Z"/>
</svg>